<svg xmlns="http://www.w3.org/2000/svg" width="200" height="200" viewBox="0 0 200 200" role="img" aria-label="Obol coin">
  <defs>
    <radialGradient id="oc" cx="36%" cy="30%" r="80%">
      <stop offset="0" stop-color="#f3d98f"/>
      <stop offset="0.42" stop-color="#d29c3c"/>
      <stop offset="0.8" stop-color="#a8761f"/>
      <stop offset="1" stop-color="#6e4a12"/>
    </radialGradient>
    <radialGradient id="oh" cx="50%" cy="40%" r="75%">
      <stop offset="0" stop-color="#eee3cd"/>
      <stop offset="1" stop-color="#c4b393"/>
    </radialGradient>
  </defs>
  <circle cx="100" cy="100" r="92" fill="url(#oc)"/>
  <circle cx="100" cy="100" r="92" fill="none" stroke="#6e4a12" stroke-width="2.5"/>
  <g stroke="#6e4a12" stroke-width="1.6" opacity="0.5">
    <line x1="186.00" y1="100.00" x2="190.50" y2="100.00"/>
    <line x1="185.67" y1="107.50" x2="190.16" y2="107.89"/>
    <line x1="184.69" y1="114.93" x2="189.13" y2="115.72"/>
    <line x1="183.07" y1="122.26" x2="187.42" y2="123.42"/>
    <line x1="180.81" y1="129.41" x2="185.04" y2="130.95"/>
    <line x1="177.94" y1="136.35" x2="182.02" y2="138.25"/>
    <line x1="174.48" y1="143.00" x2="178.38" y2="145.25"/>
    <line x1="170.45" y1="149.33" x2="174.13" y2="151.91"/>
    <line x1="165.88" y1="155.28" x2="169.33" y2="158.17"/>
    <line x1="160.81" y1="160.81" x2="163.99" y2="163.99"/>
    <line x1="155.28" y1="165.88" x2="158.17" y2="169.33"/>
    <line x1="149.33" y1="170.45" x2="151.91" y2="174.13"/>
    <line x1="143.00" y1="174.48" x2="145.25" y2="178.38"/>
    <line x1="136.35" y1="177.94" x2="138.25" y2="182.02"/>
    <line x1="129.41" y1="180.81" x2="130.95" y2="185.04"/>
    <line x1="122.26" y1="183.07" x2="123.42" y2="187.42"/>
    <line x1="114.93" y1="184.69" x2="115.72" y2="189.13"/>
    <line x1="107.50" y1="185.67" x2="107.89" y2="190.16"/>
    <line x1="100.00" y1="186.00" x2="100.00" y2="190.50"/>
    <line x1="92.50" y1="185.67" x2="92.11" y2="190.16"/>
    <line x1="85.07" y1="184.69" x2="84.28" y2="189.13"/>
    <line x1="77.74" y1="183.07" x2="76.58" y2="187.42"/>
    <line x1="70.59" y1="180.81" x2="69.05" y2="185.04"/>
    <line x1="63.65" y1="177.94" x2="61.75" y2="182.02"/>
    <line x1="57.00" y1="174.48" x2="54.75" y2="178.38"/>
    <line x1="50.67" y1="170.45" x2="48.09" y2="174.13"/>
    <line x1="44.72" y1="165.88" x2="41.83" y2="169.33"/>
    <line x1="39.19" y1="160.81" x2="36.01" y2="163.99"/>
    <line x1="34.12" y1="155.28" x2="30.67" y2="158.17"/>
    <line x1="29.55" y1="149.33" x2="25.87" y2="151.91"/>
    <line x1="25.52" y1="143.00" x2="21.62" y2="145.25"/>
    <line x1="22.06" y1="136.35" x2="17.98" y2="138.25"/>
    <line x1="19.19" y1="129.41" x2="14.96" y2="130.95"/>
    <line x1="16.93" y1="122.26" x2="12.58" y2="123.42"/>
    <line x1="15.31" y1="114.93" x2="10.87" y2="115.72"/>
    <line x1="14.33" y1="107.50" x2="9.84" y2="107.89"/>
    <line x1="14.00" y1="100.00" x2="9.50" y2="100.00"/>
    <line x1="14.33" y1="92.50" x2="9.84" y2="92.11"/>
    <line x1="15.31" y1="85.07" x2="10.87" y2="84.28"/>
    <line x1="16.93" y1="77.74" x2="12.58" y2="76.58"/>
    <line x1="19.19" y1="70.59" x2="14.96" y2="69.05"/>
    <line x1="22.06" y1="63.65" x2="17.98" y2="61.75"/>
    <line x1="25.52" y1="57.00" x2="21.62" y2="54.75"/>
    <line x1="29.55" y1="50.67" x2="25.87" y2="48.09"/>
    <line x1="34.12" y1="44.72" x2="30.67" y2="41.83"/>
    <line x1="39.19" y1="39.19" x2="36.01" y2="36.01"/>
    <line x1="44.72" y1="34.12" x2="41.83" y2="30.67"/>
    <line x1="50.67" y1="29.55" x2="48.09" y2="25.87"/>
    <line x1="57.00" y1="25.52" x2="54.75" y2="21.62"/>
    <line x1="63.65" y1="22.06" x2="61.75" y2="17.98"/>
    <line x1="70.59" y1="19.19" x2="69.05" y2="14.96"/>
    <line x1="77.74" y1="16.93" x2="76.58" y2="12.58"/>
    <line x1="85.07" y1="15.31" x2="84.28" y2="10.87"/>
    <line x1="92.50" y1="14.33" x2="92.11" y2="9.84"/>
    <line x1="100.00" y1="14.00" x2="100.00" y2="9.50"/>
    <line x1="107.50" y1="14.33" x2="107.89" y2="9.84"/>
    <line x1="114.93" y1="15.31" x2="115.72" y2="10.87"/>
    <line x1="122.26" y1="16.93" x2="123.42" y2="12.58"/>
    <line x1="129.41" y1="19.19" x2="130.95" y2="14.96"/>
    <line x1="136.35" y1="22.06" x2="138.25" y2="17.98"/>
    <line x1="143.00" y1="25.52" x2="145.25" y2="21.62"/>
    <line x1="149.33" y1="29.55" x2="151.91" y2="25.87"/>
    <line x1="155.28" y1="34.12" x2="158.17" y2="30.67"/>
    <line x1="160.81" y1="39.19" x2="163.99" y2="36.01"/>
    <line x1="165.88" y1="44.72" x2="169.33" y2="41.83"/>
    <line x1="170.45" y1="50.67" x2="174.13" y2="48.09"/>
    <line x1="174.48" y1="57.00" x2="178.38" y2="54.75"/>
    <line x1="177.94" y1="63.65" x2="182.02" y2="61.75"/>
    <line x1="180.81" y1="70.59" x2="185.04" y2="69.05"/>
    <line x1="183.07" y1="77.74" x2="187.42" y2="76.58"/>
    <line x1="184.69" y1="85.07" x2="189.13" y2="84.28"/>
    <line x1="185.67" y1="92.50" x2="190.16" y2="92.11"/>
  </g>
  <circle cx="100" cy="100" r="80" fill="none" stroke="#6e4a12" stroke-width="1.4" opacity="0.45"/>
  <rect x="76" y="76" width="48" height="48" rx="5" fill="url(#oh)"/>
  <rect x="76" y="76" width="48" height="48" rx="5" fill="none" stroke="#6e4a12" stroke-width="2.5"/>
  <rect x="79" y="79" width="42" height="42" rx="4" fill="none" stroke="#f3d98f" stroke-width="1" opacity="0.5"/>
  <ellipse cx="72" cy="62" rx="34" ry="20" fill="#fff" opacity="0.14" transform="rotate(-32 72 62)"/>
</svg>
